PathFileType	4	(X/Y/Z)	C:/Users/dbak576/Desktop/Duncan Bakke Modelling Files/H26s1/Static_H26s1.trc	
DataRate	CameraRate	NumFrames	NumMarkers	Units	OrigDataRate	OrigDataStartFrame	OrigNumFrames	
200.00	200.00	4	61	mm	200.00	8	14	
Frame#	Time	LFHD			RFHD			LBHD			RBHD			C7			T10			CLAV			STRN			RBack			LASI			RASI			LPSI			RPSI			RACR1			RUA1			RElbow			RElbowM			RFA1			RWRR			RWRU			RCAR			LACR1			LUA1			LElbow			LElbowM			LFA1			LWRR			LWRU			LCAR			RTH1			RTH3			RTH2			RTH4			RLFC			RMFC			RTB1			RTB3			RTB2			RTB4			RLMAL			RMMAL			RCAL			RMT1			RMT5			RToe			LTH1			LTH3			LTH2			LTH4			LLFC			LMFC			LTB1			LTB3			LTB2			LTB4			LLMAL			LMMAL			LCAL			LMT1			LMT5			LToe			
		X1	Y1	Z1	X2	Y2	Z2	X3	Y3	Z3	X4	Y4	Z4	X5	Y5	Z5	X6	Y6	Z6	X7	Y7	Z7	X8	Y8	Z8	X9	Y9	Z9	X10	Y10	Z10	X11	Y11	Z11	X12	Y12	Z12	X13	Y13	Z13	X14	Y14	Z14	X15	Y15	Z15	X16	Y16	Z16	X17	Y17	Z17	X18	Y18	Z18	X19	Y19	Z19	X20	Y20	Z20	X21	Y21	Z21	X22	Y22	Z22	X23	Y23	Z23	X24	Y24	Z24	X25	Y25	Z25	X26	Y26	Z26	X27	Y27	Z27	X28	Y28	Z28	X29	Y29	Z29	X30	Y30	Z30	X31	Y31	Z31	X32	Y32	Z32	X33	Y33	Z33	X34	Y34	Z34	X35	Y35	Z35	X36	Y36	Z36	X37	Y37	Z37	X38	Y38	Z38	X39	Y39	Z39	X40	Y40	Z40	X41	Y41	Z41	X42	Y42	Z42	X43	Y43	Z43	X44	Y44	Z44	X45	Y45	Z45	X46	Y46	Z46	X47	Y47	Z47	X48	Y48	Z48	X49	Y49	Z49	X50	Y50	Z50	X51	Y51	Z51	X52	Y52	Z52	X53	Y53	Z53	X54	Y54	Z54	X55	Y55	Z55	X56	Y56	Z56	X57	Y57	Z57	X58	Y58	Z58	X59	Y59	Z59	X60	Y60	Z60	X61	Y61	Z61	

8	0.035	-42.75762	-354.98508	1604.14783	54.96544	-355.81296	1601.07385	-73.96760	-499.98755	1559.74573	59.04666	-524.28613	1563.76038	4.50518	-527.51123	1415.07007	4.14162	-534.93854	1079.37024	-2.11717	-352.67752	1360.18030	9.98603	-279.78342	1249.38660	97.65856	-569.99207	1313.81543	-166.01904	-315.90491	963.90088	187.34369	-308.53696	970.09644	-80.98729	-549.53107	982.93286	51.37736	-556.34479	980.54419	142.43497	-458.34912	1420.98584	275.21130	-476.87787	1369.99146	421.14505	-452.46411	1314.37109	398.94632	-388.06784	1266.97131	552.68085	-431.23712	1346.81946	651.17029	-390.96692	1362.22473	657.02466	-405.49228	1292.52917	716.95837	-401.97864	1328.28125	-130.66321	-464.86377	1411.08032	-272.19495	-453.99194	1388.48193	-411.25204	-433.57104	1343.19116	-389.10931	-353.91864	1275.31189	-536.00311	-396.62024	1368.93469	-643.80884	-343.31558	1374.72961	-651.64844	-376.30505	1305.59424	-701.18878	-366.55374	1335.96008	245.19031	-403.53510	723.14886	214.38469	-444.85065	557.96674	214.54750	-370.41135	631.07159	233.07272	-426.64929	641.96069	203.62717	-458.68701	465.83044	24.88102	-449.49530	443.69870	131.63803	-406.68903	349.81421	153.12419	-432.17923	182.24425	202.55951	-437.78134	278.00882	142.78279	-424.17377	265.59677	213.49133	-483.35342	67.76091	129.35826	-461.16409	70.22337	171.21863	-534.60162	27.05411	142.08635	-344.24808	34.59927	233.86862	-360.19522	27.34259	154.42838	-297.07523	30.45407	-218.46220	-363.32144	720.74890	-174.43112	-402.08575	556.68359	-166.85588	-332.43863	635.18048	-198.26880	-383.56287	639.54712	-164.16866	-439.96011	488.33185	7.38915	-453.43564	458.62753	-83.22320	-413.36331	329.17062	-111.98663	-433.79828	161.30446	-158.46692	-435.53027	257.20532	-98.26838	-427.49536	245.79453	-174.79807	-487.83264	71.10497	-93.00196	-466.70770	69.59238	-130.72017	-537.12457	29.13469	-119.05006	-342.76947	36.96508	-205.66116	-371.72940	25.29569	-125.23380	-296.75146	28.19048 
9	0.040	-42.68596	-355.06003	1604.16040	54.96408	-355.72217	1601.08447	-73.96467	-499.89355	1559.75195	59.01312	-524.15570	1563.77368	4.47233	-527.43311	1415.09070	4.16940	-534.83948	1079.38184	-2.18884	-352.53064	1360.26270	9.97602	-279.73746	1249.39209	97.65749	-569.93292	1313.84241	-166.00159	-315.88977	963.85144	187.28004	-308.46848	970.11469	-80.98731	-549.52728	982.93250	51.39657	-556.25781	980.53802	142.40312	-458.25690	1420.97375	275.20547	-476.78558	1370.00879	421.09363	-452.42560	1314.37366	398.96655	-387.93054	1266.94604	552.66278	-431.15790	1346.78674	651.16510	-390.94196	1362.24927	656.96667	-405.45486	1292.52515	716.95648	-401.97272	1328.28137	-130.66794	-464.79102	1411.06348	-272.26965	-453.94601	1388.51807	-411.24048	-433.52411	1343.15417	-389.07419	-353.82071	1275.30457	-535.99683	-396.56516	1368.89539	-643.81818	-343.30658	1374.68787	-651.64020	-376.26666	1305.57483	-701.19885	-366.55878	1335.91077	245.17340	-403.45532	723.15845	214.38773	-444.85312	557.96704	214.52916	-370.37720	631.08630	233.02489	-426.47934	641.89148	203.61089	-458.68234	465.81039	24.90640	-449.46225	443.70813	131.63715	-406.68326	349.82147	153.13132	-432.17395	182.23886	202.57341	-437.75583	278.05600	142.77971	-424.21320	265.64801	213.44174	-483.36447	67.72188	129.35965	-461.16318	70.22333	171.21085	-534.60101	27.07246	142.08351	-344.23898	34.58399	233.88646	-360.19473	27.35966	154.43256	-297.04590	30.45180	-218.46361	-363.32190	720.74829	-174.43806	-402.07721	556.67340	-166.85548	-332.43640	635.18097	-198.26360	-383.50003	639.51776	-164.16571	-439.93094	488.28772	7.39373	-453.42978	458.62918	-83.24805	-413.38452	329.19208	-112.00744	-433.74405	161.33577	-158.46443	-435.52945	257.20700	-98.29205	-427.49951	245.81218	-174.77850	-487.86081	71.09201	-93.00679	-466.69266	69.61758	-130.77448	-537.18219	29.14324	-119.05180	-342.76819	36.96610	-205.67018	-371.71045	25.29159	-125.21710	-296.73438	28.19852 
10	0.045	-42.69946	-355.03003	1604.18616	54.86489	-355.65131	1601.10669	-73.94856	-499.82788	1559.77014	59.04435	-524.03998	1563.79688	4.46771	-527.38715	1415.08264	4.19171	-534.75690	1079.39624	-2.22507	-352.51401	1360.17407	9.94264	-279.59238	1249.36267	97.67540	-569.84161	1313.83093	-166.00253	-315.88770	963.83771	187.28439	-308.46991	970.10205	-80.97095	-549.53448	982.95514	51.36829	-556.20905	980.55414	142.23972	-458.19836	1420.98193	275.22369	-476.70621	1370.01550	421.07211	-452.38757	1314.37646	398.93927	-387.92151	1266.91199	552.66449	-431.11148	1346.81030	651.12671	-390.89532	1362.22778	656.93896	-405.43826	1292.52344	716.94189	-401.92886	1328.28223	-130.69925	-464.73392	1411.07300	-272.27966	-453.93951	1388.45593	-411.23987	-433.46359	1343.13232	-389.42691	-353.65985	1275.25928	-535.98737	-396.51599	1368.84448	-643.83301	-343.29211	1374.65186	-651.71539	-376.19977	1305.55664	-701.22314	-366.49033	1335.89038	245.15511	-403.44138	723.16248	214.36620	-444.79990	557.95709	214.52881	-370.36154	631.12152	233.21234	-426.48312	642.11816	203.62520	-458.68414	465.82858	24.90092	-449.45792	443.70120	131.65271	-406.70154	349.84738	153.12668	-432.17572	182.24353	202.58763	-437.76550	278.03204	142.77361	-424.11847	265.58224	213.47400	-483.31937	67.74374	129.35893	-461.16254	70.22147	171.21817	-534.60187	27.05538	142.08276	-344.24164	34.60038	233.89322	-360.15619	27.37692	154.42648	-297.07532	30.44083	-218.50822	-363.28336	720.76782	-174.40942	-402.06195	556.65271	-166.85567	-332.43686	635.18152	-198.26215	-383.49707	639.51581	-164.13310	-439.90558	488.33673	7.38939	-453.43607	458.62762	-83.23331	-413.37314	329.17804	-112.01202	-433.78232	161.33257	-158.48393	-435.51645	257.16101	-98.27290	-427.50735	245.81602	-174.79480	-487.83054	71.10361	-93.00949	-466.68524	69.62190	-130.77414	-537.17749	29.14879	-118.97711	-342.71588	36.92796	-205.68288	-371.70639	25.31305	-125.19372	-296.73792	28.19931 
11	0.050	-42.75354	-354.90509	1604.15771	54.80340	-355.48425	1601.06274	-74.00397	-499.71634	1559.79114	58.99225	-523.94202	1563.80847	4.37757	-527.31702	1415.14844	4.19397	-534.67090	1079.39233	-2.25309	-352.48495	1360.16882	9.90026	-279.56442	1249.38525	97.64940	-569.77112	1313.86536	-166.03539	-315.89774	963.84680	187.25127	-308.44168	970.07263	-80.92896	-549.48511	982.94495	51.37850	-556.18158	980.55957	142.34404	-458.09500	1421.02356	275.20923	-476.60849	1370.05688	421.04208	-452.36005	1314.37793	398.91483	-387.80463	1266.92468	552.66229	-431.06339	1346.76099	651.11646	-390.85312	1362.21692	656.92603	-405.40628	1292.52136	716.93799	-401.92334	1328.27161	-130.67749	-464.72461	1411.04822	-272.32880	-453.85614	1388.46057	-411.26163	-433.39996	1343.11267	-389.45615	-354.11755	1275.02930	-535.99194	-396.56601	1368.78552	-643.87524	-343.25967	1374.63062	-651.70764	-376.16751	1305.50806	-701.26324	-366.47427	1335.86768	245.19446	-403.44067	723.15216	214.37944	-444.76086	557.96405	214.53888	-370.33936	631.09454	233.04533	-426.50143	642.02112	203.60432	-458.63974	465.80765	24.88419	-449.48965	443.69443	131.62639	-406.67529	349.83969	153.12622	-432.17880	182.24507	202.57655	-437.73792	278.03528	142.77760	-424.08078	265.59521	213.46568	-483.31610	67.79234	129.35896	-461.16602	70.22713	171.20384	-534.58545	27.05329	142.08414	-344.24133	34.58551	233.87946	-360.17487	27.36790	154.42775	-297.07556	30.45130	-218.49005	-363.28940	720.76227	-174.42885	-402.08322	556.68164	-166.86244	-332.40518	635.15985	-198.26907	-383.50043	639.50360	-164.18021	-439.90768	488.31482	7.38910	-453.43918	458.62766	-83.22589	-413.36200	329.16803	-112.02190	-433.75766	161.31839	-158.46689	-435.53131	257.20706	-98.25977	-427.49252	245.83658	-174.77185	-487.86575	71.10295	-93.00970	-466.68515	69.62090	-130.80959	-537.19543	29.21844	-119.04607	-342.77048	36.96358	-205.69957	-371.75085	25.32859	-125.20071	-296.75070	28.19983 
